<svg width="24" height="26" viewBox="0 0 24 26" fill="none" xmlns="http://www.w3.org/2000/svg">
    <path d="M1.239 8.577c-2.483 4.042-.905 10.175 1.84 13.894 1.371 1.86 2.759 3.528 4.66 3.528.035 0 .07 0 .108-.002.893-.033 1.538-.291 2.162-.54.7-.28 1.424-.57 2.56-.57 1.081 0 1.771.28 2.438.551.658.267 1.335.543 2.336.525 2.14-.037 3.455-1.838 4.614-3.427a14.797 14.797 0 0 0 2.022-3.885l.009-.024a.221.221 0 0 0-.128-.277l-.018-.007c-.377-.145-3.684-1.52-3.718-5.271-.033-3.048 2.48-4.661 2.984-4.954l.024-.013a.226.226 0 0 0 .105-.145.214.214 0 0 0-.037-.173c-1.735-2.38-4.393-2.74-5.463-2.783a5.138 5.138 0 0 0-.477-.022c-1.257 0-2.461.446-3.429.804-.668.247-1.245.46-1.643.46-.447 0-1.027-.216-1.699-.466-.898-.334-1.916-.713-2.994-.713h-.076a7.425 7.425 0 0 0-6.18 3.51z" fill="#696466"/>
    <path d="M14.497 0c-1.24.044-2.729.713-3.618 1.625-.756.767-1.494 2.045-1.3 3.334.013.08.088.143.18.149.084.006.17.009.254.009 1.213 0 2.522-.588 3.415-1.534.94-1 1.416-2.281 1.272-3.43-.011-.09-.101-.156-.203-.153z" fill="#696466"/>
</svg>
