<svg width="164" height="52" viewBox="0 0 164 52" fill="none" xmlns="http://www.w3.org/2000/svg">
<rect x="0.5" y="0.5" width="163" height="51" rx="9.5" stroke="#C6BCB8"/>
<path d="M27.3495 20.7633C24.6442 25.4578 26.3641 32.5821 29.3557 36.9018C30.849 39.0614 32.3609 41 34.4316 41C34.4707 41 34.5098 40.9992 34.5499 40.9977C35.5228 40.9589 36.2258 40.6593 36.9056 40.3698C37.6688 40.0446 38.4581 39.7083 39.6961 39.7083C40.8739 39.7083 41.6255 40.0337 42.3524 40.3482C43.0688 40.6582 43.8067 40.9788 44.897 40.9583C47.2295 40.9149 48.6617 38.823 49.9252 36.9776C51.2437 35.0508 51.9051 33.18 52.1283 32.4651L52.1373 32.4367C52.1798 32.3096 52.1198 32.1709 51.998 32.115C51.9946 32.1134 51.9822 32.1083 51.9787 32.1068C51.568 31.9388 47.9649 30.3404 47.927 25.9838C47.8919 22.4443 50.63 20.5699 51.1792 20.2302L51.2048 20.2142C51.2643 20.1759 51.3057 20.1152 51.3198 20.0457C51.3338 19.9764 51.3191 19.9042 51.2793 19.8459C49.3893 17.08 46.4925 16.6632 45.3262 16.613C45.157 16.5961 44.9823 16.5876 44.8069 16.5876C43.4371 16.5876 42.1248 17.105 41.0706 17.5207C40.3429 17.8076 39.7144 18.0554 39.2808 18.0554C38.7937 18.0554 38.1616 17.8046 37.4296 17.5142C36.4507 17.1257 35.3412 16.6854 34.1666 16.6854C34.1386 16.6854 34.111 16.6857 34.0838 16.6863C31.3528 16.7265 28.7722 18.2889 27.3495 20.7633Z" fill="white"/>
<path d="M45.3289 9.0002C43.675 9.06756 41.6911 10.0856 40.5054 11.4745C39.4976 12.6419 38.5132 14.5883 38.7725 16.5503C38.7888 16.6731 38.8887 16.7678 39.0122 16.7774C39.1238 16.7861 39.2377 16.7905 39.3513 16.7906C40.9684 16.7906 42.7128 15.8959 43.9042 14.4554C45.1581 12.9343 45.7921 10.9822 45.6003 9.23364C45.5852 9.09662 45.4646 8.99485 45.3289 9.0002Z" fill="white"/>
<path d="M70.751 16.1445H67.7725L67.1035 18H66.1367L68.8516 10.8906H69.6719L72.3916 18H71.4297L70.751 16.1445ZM68.0557 15.373H70.4727L69.2617 12.0479L68.0557 15.373ZM74.7061 16.7744L76.0146 12.7168H76.9375L75.043 18H74.3545L72.4404 12.7168H73.3633L74.7061 16.7744ZM80.9902 18C80.9382 17.8958 80.8958 17.7103 80.8633 17.4434C80.4434 17.8796 79.9421 18.0977 79.3594 18.0977C78.8385 18.0977 78.4105 17.9512 78.0752 17.6582C77.7432 17.362 77.5771 16.9876 77.5771 16.5352C77.5771 15.985 77.7855 15.5586 78.2021 15.2559C78.6221 14.9499 79.2113 14.7969 79.9697 14.7969H80.8486V14.3818C80.8486 14.0661 80.7542 13.8154 80.5654 13.6299C80.3766 13.4411 80.0983 13.3467 79.7305 13.3467C79.4082 13.3467 79.138 13.4281 78.9199 13.5908C78.7018 13.7536 78.5928 13.9505 78.5928 14.1816H77.6846C77.6846 13.918 77.7773 13.6641 77.9629 13.4199C78.1517 13.1725 78.4056 12.9772 78.7246 12.834C79.0469 12.6908 79.4001 12.6191 79.7842 12.6191C80.3929 12.6191 80.8698 12.7721 81.2148 13.0781C81.5599 13.3809 81.7389 13.7992 81.752 14.333V16.7646C81.752 17.2497 81.8138 17.6354 81.9375 17.9219V18H80.9902ZM79.4912 17.3115C79.7744 17.3115 80.043 17.2383 80.2969 17.0918C80.5508 16.9453 80.7347 16.7549 80.8486 16.5205V15.4365H80.1406C79.0339 15.4365 78.4805 15.7604 78.4805 16.4082C78.4805 16.6914 78.5749 16.9128 78.7637 17.0723C78.9525 17.2318 79.195 17.3115 79.4912 17.3115ZM84.1494 18H83.2461V12.7168H84.1494V18ZM83.1729 11.3154C83.1729 11.1689 83.2168 11.0452 83.3047 10.9443C83.3958 10.8434 83.5293 10.793 83.7051 10.793C83.8809 10.793 84.0143 10.8434 84.1055 10.9443C84.1966 11.0452 84.2422 11.1689 84.2422 11.3154C84.2422 11.4619 84.1966 11.584 84.1055 11.6816C84.0143 11.7793 83.8809 11.8281 83.7051 11.8281C83.5293 11.8281 83.3958 11.7793 83.3047 11.6816C83.2168 11.584 83.1729 11.4619 83.1729 11.3154ZM86.5811 18H85.6777V10.5H86.5811V18ZM91.293 18C91.2409 17.8958 91.1986 17.7103 91.166 17.4434C90.7461 17.8796 90.2448 18.0977 89.6621 18.0977C89.1413 18.0977 88.7132 17.9512 88.3779 17.6582C88.0459 17.362 87.8799 16.9876 87.8799 16.5352C87.8799 15.985 88.0882 15.5586 88.5049 15.2559C88.9248 14.9499 89.514 14.7969 90.2725 14.7969H91.1514V14.3818C91.1514 14.0661 91.057 13.8154 90.8682 13.6299C90.6794 13.4411 90.401 13.3467 90.0332 13.3467C89.7109 13.3467 89.4408 13.4281 89.2227 13.5908C89.0046 13.7536 88.8955 13.9505 88.8955 14.1816H87.9873C87.9873 13.918 88.0801 13.6641 88.2656 13.4199C88.4544 13.1725 88.7083 12.9772 89.0273 12.834C89.3496 12.6908 89.7028 12.6191 90.0869 12.6191C90.6956 12.6191 91.1725 12.7721 91.5176 13.0781C91.8626 13.3809 92.0417 13.7992 92.0547 14.333V16.7646C92.0547 17.2497 92.1165 17.6354 92.2402 17.9219V18H91.293ZM89.7939 17.3115C90.0771 17.3115 90.3457 17.2383 90.5996 17.0918C90.8535 16.9453 91.0374 16.7549 91.1514 16.5205V15.4365H90.4434C89.3366 15.4365 88.7832 15.7604 88.7832 16.4082C88.7832 16.6914 88.8776 16.9128 89.0664 17.0723C89.2552 17.2318 89.4977 17.3115 89.7939 17.3115ZM97.9434 15.417C97.9434 16.2243 97.7578 16.8737 97.3867 17.3652C97.0156 17.8535 96.5176 18.0977 95.8926 18.0977C95.2253 18.0977 94.7093 17.8617 94.3447 17.3896L94.3008 18H93.4707V10.5H94.374V13.2979C94.7386 12.8454 95.2415 12.6191 95.8828 12.6191C96.5241 12.6191 97.027 12.8617 97.3916 13.3467C97.7594 13.8317 97.9434 14.4958 97.9434 15.3389V15.417ZM97.04 15.3145C97.04 14.6992 96.9212 14.224 96.6836 13.8887C96.446 13.5534 96.1042 13.3857 95.6582 13.3857C95.0625 13.3857 94.6344 13.6624 94.374 14.2158V16.501C94.6507 17.0544 95.082 17.3311 95.668 17.3311C96.1009 17.3311 96.4378 17.1634 96.6787 16.8281C96.9196 16.4928 97.04 15.9883 97.04 15.3145ZM100.067 18H99.1641V10.5H100.067V18ZM103.71 18.0977C102.994 18.0977 102.411 17.8633 101.962 17.3945C101.513 16.9225 101.288 16.2926 101.288 15.5049V15.3389C101.288 14.8148 101.387 14.3477 101.586 13.9375C101.788 13.5241 102.068 13.2018 102.426 12.9707C102.787 12.7363 103.178 12.6191 103.598 12.6191C104.285 12.6191 104.818 12.8454 105.199 13.2979C105.58 13.7503 105.771 14.3981 105.771 15.2412V15.6172H102.191C102.204 16.138 102.356 16.5596 102.646 16.8818C102.938 17.2008 103.31 17.3604 103.759 17.3604C104.078 17.3604 104.348 17.2952 104.569 17.165C104.791 17.0348 104.984 16.8623 105.15 16.6475L105.702 17.0771C105.259 17.7575 104.595 18.0977 103.71 18.0977ZM103.598 13.3613C103.233 13.3613 102.927 13.4948 102.68 13.7617C102.432 14.0254 102.279 14.3965 102.221 14.875H104.867V14.8066C104.841 14.3477 104.717 13.9928 104.496 13.7422C104.275 13.4883 103.975 13.3613 103.598 13.3613ZM109.062 15.3096C109.062 14.792 109.162 14.3265 109.364 13.9131C109.569 13.4997 109.853 13.1807 110.214 12.9561C110.578 12.7314 110.993 12.6191 111.459 12.6191C112.178 12.6191 112.759 12.8682 113.202 13.3662C113.648 13.8643 113.871 14.5267 113.871 15.3535V15.417C113.871 15.9313 113.772 16.3936 113.573 16.8037C113.378 17.2106 113.096 17.528 112.729 17.7559C112.364 17.9837 111.944 18.0977 111.469 18.0977C110.753 18.0977 110.172 17.8486 109.726 17.3506C109.283 16.8525 109.062 16.1934 109.062 15.373V15.3096ZM109.97 15.417C109.97 16.0029 110.105 16.4733 110.375 16.8281C110.648 17.1829 111.013 17.3604 111.469 17.3604C111.928 17.3604 112.292 17.1813 112.562 16.8232C112.833 16.4619 112.968 15.9574 112.968 15.3096C112.968 14.7301 112.829 14.2614 112.553 13.9033C112.279 13.542 111.915 13.3613 111.459 13.3613C111.013 13.3613 110.653 13.5387 110.38 13.8936C110.106 14.2484 109.97 14.7562 109.97 15.417ZM115.858 12.7168L115.888 13.3809C116.291 12.873 116.819 12.6191 117.47 12.6191C118.586 12.6191 119.149 13.249 119.159 14.5088V18H118.256V14.5039C118.253 14.123 118.165 13.8415 117.992 13.6592C117.823 13.4769 117.558 13.3857 117.196 13.3857C116.903 13.3857 116.646 13.4639 116.425 13.6201C116.203 13.7764 116.031 13.9814 115.907 14.2354V18H115.004V12.7168H115.858ZM124.228 11.4375V12.7168H125.214V13.415H124.228V16.6914C124.228 16.903 124.271 17.0625 124.359 17.1699C124.447 17.2741 124.597 17.3262 124.809 17.3262C124.913 17.3262 125.056 17.3066 125.238 17.2676V18C125.001 18.0651 124.77 18.0977 124.545 18.0977C124.141 18.0977 123.837 17.9756 123.632 17.7314C123.427 17.4873 123.324 17.1406 123.324 16.6914V13.415H122.362V12.7168H123.324V11.4375H124.228ZM127.177 13.3564C127.577 12.8649 128.098 12.6191 128.739 12.6191C129.856 12.6191 130.419 13.249 130.429 14.5088V18H129.525V14.5039C129.522 14.123 129.434 13.8415 129.262 13.6592C129.092 13.4769 128.827 13.3857 128.466 13.3857C128.173 13.3857 127.916 13.4639 127.694 13.6201C127.473 13.7764 127.3 13.9814 127.177 14.2354V18H126.273V10.5H127.177V13.3564ZM133.974 18.0977C133.257 18.0977 132.675 17.8633 132.226 17.3945C131.776 16.9225 131.552 16.2926 131.552 15.5049V15.3389C131.552 14.8148 131.651 14.3477 131.85 13.9375C132.051 13.5241 132.331 13.2018 132.689 12.9707C133.051 12.7363 133.441 12.6191 133.861 12.6191C134.548 12.6191 135.082 12.8454 135.463 13.2979C135.844 13.7503 136.034 14.3981 136.034 15.2412V15.6172H132.455C132.468 16.138 132.619 16.5596 132.909 16.8818C133.202 17.2008 133.573 17.3604 134.022 17.3604C134.341 17.3604 134.612 17.2952 134.833 17.165C135.054 17.0348 135.248 16.8623 135.414 16.6475L135.966 17.0771C135.523 17.7575 134.859 18.0977 133.974 18.0977ZM133.861 13.3613C133.497 13.3613 133.191 13.4948 132.943 13.7617C132.696 14.0254 132.543 14.3965 132.484 14.875H135.131V14.8066C135.105 14.3477 134.981 13.9928 134.76 13.7422C134.538 13.4883 134.239 13.3613 133.861 13.3613Z" fill="white"/>
<path d="M73.6016 35.0312H68.8359L67.7656 38H66.2188L70.5625 26.625H71.875L76.2266 38H74.6875L73.6016 35.0312ZM69.2891 33.7969H73.1562L71.2188 28.4766L69.2891 33.7969ZM84.6719 33.8672C84.6719 35.1536 84.3776 36.1901 83.7891 36.9766C83.2005 37.763 82.4036 38.1562 81.3984 38.1562C80.3724 38.1562 79.5651 37.8307 78.9766 37.1797V41.25H77.5312V29.5469H78.8516L78.9219 30.4844C79.5104 29.7552 80.3281 29.3906 81.375 29.3906C82.3906 29.3906 83.1927 29.7734 83.7812 30.5391C84.375 31.3047 84.6719 32.3698 84.6719 33.7344V33.8672ZM83.2266 33.7031C83.2266 32.75 83.0234 31.9974 82.6172 31.4453C82.2109 30.8932 81.6536 30.6172 80.9453 30.6172C80.0703 30.6172 79.4141 31.0052 78.9766 31.7812V35.8203C79.4089 36.5911 80.0703 36.9766 80.9609 36.9766C81.6536 36.9766 82.2031 36.7031 82.6094 36.1562C83.0208 35.6042 83.2266 34.7865 83.2266 33.7031ZM93.6562 33.8672C93.6562 35.1536 93.362 36.1901 92.7734 36.9766C92.1849 37.763 91.388 38.1562 90.3828 38.1562C89.3568 38.1562 88.5495 37.8307 87.9609 37.1797V41.25H86.5156V29.5469H87.8359L87.9062 30.4844C88.4948 29.7552 89.3125 29.3906 90.3594 29.3906C91.375 29.3906 92.1771 29.7734 92.7656 30.5391C93.3594 31.3047 93.6562 32.3698 93.6562 33.7344V33.8672ZM92.2109 33.7031C92.2109 32.75 92.0078 31.9974 91.6016 31.4453C91.1953 30.8932 90.638 30.6172 89.9297 30.6172C89.0547 30.6172 88.3984 31.0052 87.9609 31.7812V35.8203C88.3932 36.5911 89.0547 36.9766 89.9453 36.9766C90.638 36.9766 91.1875 36.7031 91.5938 36.1562C92.0052 35.6042 92.2109 34.7865 92.2109 33.7031ZM103.047 32.9297C101.76 32.5599 100.823 32.1068 100.234 31.5703C99.651 31.0286 99.3594 30.362 99.3594 29.5703C99.3594 28.6745 99.7161 27.9349 100.43 27.3516C101.148 26.763 102.081 26.4688 103.227 26.4688C104.008 26.4688 104.703 26.6198 105.312 26.9219C105.927 27.224 106.401 27.6406 106.734 28.1719C107.073 28.7031 107.242 29.2839 107.242 29.9141H105.734C105.734 29.2266 105.516 28.6875 105.078 28.2969C104.641 27.901 104.023 27.7031 103.227 27.7031C102.487 27.7031 101.909 27.8672 101.492 28.1953C101.081 28.5182 100.875 28.9688 100.875 29.5469C100.875 30.0104 101.07 30.4036 101.461 30.7266C101.857 31.0443 102.526 31.3359 103.469 31.6016C104.417 31.8672 105.156 32.1615 105.688 32.4844C106.224 32.8021 106.62 33.1745 106.875 33.6016C107.135 34.0286 107.266 34.5312 107.266 35.1094C107.266 36.0312 106.906 36.7708 106.188 37.3281C105.469 37.8802 104.508 38.1562 103.305 38.1562C102.523 38.1562 101.794 38.0078 101.117 37.7109C100.44 37.4089 99.9167 36.9974 99.5469 36.4766C99.1823 35.9557 99 35.3646 99 34.7031H100.508C100.508 35.3906 100.76 35.9349 101.266 36.3359C101.776 36.7318 102.456 36.9297 103.305 36.9297C104.096 36.9297 104.703 36.7682 105.125 36.4453C105.547 36.1224 105.758 35.6823 105.758 35.125C105.758 34.5677 105.562 34.138 105.172 33.8359C104.781 33.5286 104.073 33.2266 103.047 32.9297ZM110.93 27.5V29.5469H112.508V30.6641H110.93V35.9062C110.93 36.2448 111 36.5 111.141 36.6719C111.281 36.8385 111.521 36.9219 111.859 36.9219C112.026 36.9219 112.255 36.8906 112.547 36.8281V38C112.167 38.1042 111.797 38.1562 111.438 38.1562C110.792 38.1562 110.305 37.9609 109.977 37.5703C109.648 37.1797 109.484 36.625 109.484 35.9062V30.6641H107.945V29.5469H109.484V27.5H110.93ZM113.664 33.6953C113.664 32.8672 113.826 32.1224 114.148 31.4609C114.477 30.7995 114.93 30.2891 115.508 29.9297C116.091 29.5703 116.755 29.3906 117.5 29.3906C118.651 29.3906 119.581 29.7891 120.289 30.5859C121.003 31.3828 121.359 32.4427 121.359 33.7656V33.8672C121.359 34.6901 121.201 35.4297 120.883 36.0859C120.57 36.737 120.12 37.2448 119.531 37.6094C118.948 37.974 118.276 38.1562 117.516 38.1562C116.37 38.1562 115.44 37.7578 114.727 36.9609C114.018 36.1641 113.664 35.1094 113.664 33.7969V33.6953ZM115.117 33.8672C115.117 34.8047 115.333 35.5573 115.766 36.125C116.203 36.6927 116.786 36.9766 117.516 36.9766C118.25 36.9766 118.833 36.6901 119.266 36.1172C119.698 35.5391 119.914 34.7318 119.914 33.6953C119.914 32.7682 119.693 32.0182 119.25 31.4453C118.812 30.8672 118.229 30.5781 117.5 30.5781C116.786 30.5781 116.211 30.862 115.773 31.4297C115.336 31.9974 115.117 32.8099 115.117 33.8672ZM127.258 30.8438C127.039 30.8073 126.802 30.7891 126.547 30.7891C125.599 30.7891 124.956 31.1927 124.617 32V38H123.172V29.5469H124.578L124.602 30.5234C125.076 29.7682 125.747 29.3906 126.617 29.3906C126.898 29.3906 127.112 29.4271 127.258 29.5V30.8438ZM131.945 38.1562C130.799 38.1562 129.867 37.7812 129.148 37.0312C128.43 36.276 128.07 35.2682 128.07 34.0078V33.7422C128.07 32.9036 128.229 32.1562 128.547 31.5C128.87 30.8385 129.318 30.3229 129.891 29.9531C130.469 29.5781 131.094 29.3906 131.766 29.3906C132.865 29.3906 133.719 29.7526 134.328 30.4766C134.938 31.2005 135.242 32.237 135.242 33.5859V34.1875H129.516C129.536 35.0208 129.779 35.6953 130.242 36.2109C130.711 36.7214 131.305 36.9766 132.023 36.9766C132.534 36.9766 132.966 36.8724 133.32 36.6641C133.674 36.4557 133.984 36.1797 134.25 35.8359L135.133 36.5234C134.424 37.612 133.362 38.1562 131.945 38.1562ZM131.766 30.5781C131.182 30.5781 130.693 30.7917 130.297 31.2188C129.901 31.6406 129.656 32.2344 129.562 33H133.797V32.8906C133.755 32.1562 133.557 31.5885 133.203 31.1875C132.849 30.7812 132.37 30.5781 131.766 30.5781Z" fill="white"/>
</svg>
