<svg width="1252" height="896" viewBox="0 0 1252 896" fill="none" xmlns="http://www.w3.org/2000/svg">
<rect opacity="0.9" width="550" height="896" fill="#925EB0" fill-opacity="0.9"/>
<path d="M84.128 271.4H90.56V299.192H105.056V305H84.128V271.4ZM120.561 279.128C124.657 279.128 127.729 280.296 129.777 282.632C131.857 284.968 132.897 288.248 132.897 292.472C132.897 293.304 132.881 293.928 132.849 294.344H113.889C114.305 296.168 115.153 297.608 116.433 298.664C117.745 299.688 119.345 300.2 121.233 300.2C122.545 300.2 123.793 299.96 124.977 299.48C126.193 298.968 127.249 298.248 128.145 297.32L131.505 300.824C130.225 302.232 128.657 303.32 126.801 304.088C124.977 304.856 122.945 305.24 120.705 305.24C118.081 305.24 115.761 304.696 113.745 303.608C111.761 302.52 110.225 301 109.137 299.048C108.049 297.064 107.505 294.792 107.505 292.232C107.505 289.672 108.049 287.4 109.137 285.416C110.257 283.432 111.809 281.896 113.793 280.808C115.777 279.688 118.033 279.128 120.561 279.128ZM127.185 290.168C127.121 288.28 126.497 286.776 125.313 285.656C124.129 284.536 122.561 283.976 120.609 283.976C118.785 283.976 117.249 284.536 116.001 285.656C114.785 286.744 114.033 288.248 113.745 290.168H127.185ZM153.431 305V301.88C152.535 303 151.383 303.848 149.975 304.424C148.567 305 146.951 305.288 145.127 305.288C143.335 305.288 141.751 304.952 140.375 304.28C139.031 303.576 137.991 302.616 137.255 301.4C136.519 300.184 136.151 298.824 136.151 297.32C136.151 294.92 136.999 293.048 138.695 291.704C140.391 290.328 142.791 289.624 145.895 289.592H153.383V288.92C153.383 287.416 152.887 286.248 151.895 285.416C150.903 284.584 149.463 284.168 147.575 284.168C145.143 284.168 142.599 284.968 139.943 286.568L137.687 282.248C139.703 281.128 141.527 280.328 143.159 279.848C144.823 279.336 146.759 279.08 148.967 279.08C152.295 279.08 154.871 279.88 156.695 281.48C158.551 283.08 159.495 285.32 159.527 288.2L159.575 305H153.431ZM146.615 300.488C148.407 300.488 149.943 300.072 151.223 299.24C152.503 298.376 153.223 297.32 153.383 296.072V293.768H146.903C145.239 293.768 144.007 294.024 143.207 294.536C142.439 295.016 142.055 295.816 142.055 296.936C142.055 298.024 142.455 298.888 143.255 299.528C144.087 300.168 145.207 300.488 146.615 300.488ZM172.816 284.264C173.68 282.6 174.848 281.336 176.32 280.472C177.824 279.576 179.568 279.112 181.552 279.08V285.128C178.896 284.968 176.768 285.592 175.168 287C173.6 288.376 172.816 290.248 172.816 292.616V305H166.576V279.32H172.816V284.264ZM201.391 279.08C204.335 279.08 206.655 279.976 208.351 281.768C210.047 283.528 210.895 285.928 210.895 288.968V305H204.607V290.792C204.607 289 204.095 287.592 203.071 286.568C202.047 285.512 200.655 284.984 198.895 284.984C196.815 285.016 195.167 285.72 193.951 287.096C192.767 288.472 192.175 290.232 192.175 292.376V305H185.935V279.32H192.175V284.12C193.935 280.824 197.007 279.144 201.391 279.08ZM219.392 298.52C220.352 298.52 221.136 298.84 221.744 299.48C222.384 300.12 222.704 300.936 222.704 301.928C222.704 302.952 222.384 303.8 221.744 304.472C221.136 305.112 220.352 305.432 219.392 305.432C218.464 305.432 217.68 305.096 217.04 304.424C216.432 303.752 216.128 302.92 216.128 301.928C216.128 300.936 216.432 300.12 217.04 299.48C217.68 298.84 218.464 298.52 219.392 298.52Z" fill="white"/>
<path d="M98.096 350.4C101.456 350.4 104.464 351.12 107.12 352.56C109.776 353.968 111.856 355.952 113.36 358.512C114.864 361.072 115.616 363.968 115.616 367.2C115.616 370.432 114.848 373.328 113.312 375.888C111.808 378.416 109.712 380.4 107.024 381.84C104.336 383.28 101.28 384 97.856 384H84.128V350.4H98.096ZM98.24 378.336C100.288 378.336 102.128 377.872 103.76 376.944C105.424 375.984 106.72 374.672 107.648 373.008C108.576 371.312 109.04 369.392 109.04 367.248C109.04 365.104 108.56 363.184 107.6 361.488C106.64 359.76 105.312 358.432 103.616 357.504C101.952 356.544 100.08 356.064 98 356.064H90.56V378.336H98.24ZM131.717 358.128C135.813 358.128 138.885 359.296 140.933 361.632C143.013 363.968 144.053 367.248 144.053 371.472C144.053 372.304 144.037 372.928 144.005 373.344H125.045C125.461 375.168 126.309 376.608 127.589 377.664C128.901 378.688 130.501 379.2 132.389 379.2C133.701 379.2 134.949 378.96 136.133 378.48C137.349 377.968 138.405 377.248 139.301 376.32L142.661 379.824C141.381 381.232 139.813 382.32 137.957 383.088C136.133 383.856 134.101 384.24 131.861 384.24C129.237 384.24 126.917 383.696 124.901 382.608C122.917 381.52 121.381 380 120.293 378.048C119.205 376.064 118.661 373.792 118.661 371.232C118.661 368.672 119.205 366.4 120.293 364.416C121.413 362.432 122.965 360.896 124.949 359.808C126.933 358.688 129.189 358.128 131.717 358.128ZM138.341 369.168C138.277 367.28 137.653 365.776 136.469 364.656C135.285 363.536 133.717 362.976 131.765 362.976C129.941 362.976 128.405 363.536 127.157 364.656C125.941 365.744 125.189 367.248 124.901 369.168H138.341ZM164.635 365.28C163.387 364.544 162.091 363.968 160.747 363.552C159.435 363.136 158.219 362.928 157.099 362.928C156.043 362.928 155.195 363.12 154.555 363.504C153.947 363.856 153.643 364.416 153.643 365.184C153.643 365.984 154.027 366.608 154.795 367.056C155.595 367.472 156.843 367.92 158.539 368.4C160.331 368.944 161.803 369.488 162.955 370.032C164.107 370.544 165.099 371.328 165.931 372.384C166.795 373.408 167.227 374.768 167.227 376.464C167.227 378.96 166.267 380.88 164.347 382.224C162.427 383.568 160.011 384.24 157.099 384.24C155.115 384.24 153.179 383.936 151.291 383.328C149.403 382.688 147.803 381.792 146.491 380.64L148.651 376.272C149.803 377.264 151.179 378.048 152.779 378.624C154.379 379.168 155.899 379.44 157.339 379.44C158.491 379.44 159.403 379.248 160.075 378.864C160.779 378.448 161.131 377.84 161.131 377.04C161.131 376.144 160.731 375.472 159.931 375.024C159.131 374.576 157.835 374.08 156.043 373.536C154.315 373.024 152.907 372.528 151.819 372.048C150.731 371.536 149.787 370.784 148.987 369.792C148.187 368.768 147.787 367.44 147.787 365.808C147.787 363.28 148.699 361.36 150.523 360.048C152.379 358.704 154.699 358.032 157.483 358.032C159.179 358.032 160.843 358.272 162.475 358.752C164.139 359.232 165.611 359.904 166.891 360.768L164.635 365.28ZM172.576 358.32H178.816V384H172.576V358.32ZM175.648 347.28C176.672 347.28 177.52 347.632 178.192 348.336C178.864 349.04 179.2 349.936 179.2 351.024C179.2 352.08 178.864 352.96 178.192 353.664C177.52 354.368 176.672 354.72 175.648 354.72C174.624 354.72 173.776 354.368 173.104 353.664C172.432 352.96 172.096 352.08 172.096 351.024C172.096 349.936 172.432 349.04 173.104 348.336C173.776 347.632 174.624 347.28 175.648 347.28ZM210.016 358.32V381.552C210.016 383.984 209.456 386.096 208.336 387.888C207.248 389.712 205.68 391.104 203.632 392.064C201.616 393.056 199.264 393.552 196.576 393.552C192.672 393.552 189.056 392.416 185.728 390.144L188.224 385.632C190.656 387.424 193.328 388.32 196.24 388.32C198.544 388.32 200.368 387.728 201.712 386.544C203.088 385.36 203.776 383.744 203.776 381.696V378.672C202.912 379.984 201.792 380.992 200.416 381.696C199.04 382.368 197.44 382.704 195.616 382.704C193.376 382.704 191.392 382.192 189.664 381.168C187.936 380.112 186.592 378.656 185.632 376.8C184.672 374.912 184.192 372.752 184.192 370.32C184.192 367.92 184.672 365.808 185.632 363.984C186.592 362.128 187.936 360.688 189.664 359.664C191.392 358.64 193.376 358.128 195.616 358.128C197.408 358.128 198.992 358.48 200.368 359.184C201.776 359.888 202.912 360.88 203.776 362.16V358.32H210.016ZM196.96 377.808C198.976 377.808 200.608 377.136 201.856 375.792C203.136 374.416 203.776 372.64 203.776 370.464C203.776 368.288 203.136 366.528 201.856 365.184C200.608 363.808 198.976 363.12 196.96 363.12C194.944 363.12 193.296 363.808 192.016 365.184C190.768 366.56 190.128 368.32 190.096 370.464C190.128 372.64 190.768 374.416 192.016 375.792C193.296 377.136 194.944 377.808 196.96 377.808ZM232.797 358.08C235.741 358.08 238.061 358.976 239.757 360.768C241.453 362.528 242.301 364.928 242.301 367.968V384H236.013V369.792C236.013 368 235.501 366.592 234.477 365.568C233.453 364.512 232.061 363.984 230.301 363.984C228.221 364.016 226.573 364.72 225.357 366.096C224.173 367.472 223.581 369.232 223.581 371.376V384H217.341V358.32H223.581V363.12C225.341 359.824 228.413 358.144 232.797 358.08ZM250.798 377.52C251.758 377.52 252.542 377.84 253.15 378.48C253.79 379.12 254.11 379.936 254.11 380.928C254.11 381.952 253.79 382.8 253.15 383.472C252.542 384.112 251.758 384.432 250.798 384.432C249.87 384.432 249.086 384.096 248.446 383.424C247.838 382.752 247.534 381.92 247.534 380.928C247.534 379.936 247.838 379.12 248.446 378.48C249.086 377.84 249.87 377.52 250.798 377.52Z" fill="white"/>
<path d="M108.464 439.096C107.28 437.72 105.872 436.648 104.24 435.88C102.64 435.112 101.008 434.728 99.344 434.728C97.264 434.728 95.36 435.224 93.632 436.216C91.904 437.208 90.544 438.584 89.552 440.344C88.56 442.072 88.064 443.976 88.064 446.056C88.064 448.136 88.56 450.056 89.552 451.816C90.544 453.544 91.904 454.92 93.632 455.944C95.36 456.936 97.264 457.432 99.344 457.432C100.944 457.432 102.544 457.08 104.144 456.376C105.776 455.672 107.216 454.696 108.464 453.448L112.256 457.672C110.496 459.464 108.448 460.888 106.112 461.944C103.776 462.968 101.408 463.48 99.008 463.48C95.776 463.48 92.816 462.712 90.128 461.176C87.44 459.64 85.328 457.56 83.792 454.936C82.256 452.28 81.488 449.352 81.488 446.152C81.488 442.952 82.272 440.04 83.84 437.416C85.408 434.792 87.536 432.728 90.224 431.224C92.944 429.72 95.952 428.968 99.248 428.968C101.648 428.968 104 429.448 106.304 430.408C108.608 431.368 110.576 432.696 112.208 434.392L108.464 439.096ZM127.886 437.128C130.542 437.128 132.878 437.672 134.894 438.76C136.942 439.848 138.526 441.384 139.646 443.368C140.798 445.32 141.374 447.576 141.374 450.136C141.374 452.728 140.798 455.016 139.646 457C138.526 458.984 136.942 460.52 134.894 461.608C132.878 462.696 130.542 463.24 127.886 463.24C125.198 463.24 122.83 462.696 120.782 461.608C118.734 460.52 117.134 458.984 115.982 457C114.862 455.016 114.302 452.728 114.302 450.136C114.302 447.576 114.862 445.32 115.982 443.368C117.134 441.384 118.734 439.848 120.782 438.76C122.83 437.672 125.198 437.128 127.886 437.128ZM127.886 442.456C125.71 442.456 123.95 443.176 122.606 444.616C121.262 446.056 120.59 447.928 120.59 450.232C120.59 452.536 121.262 454.408 122.606 455.848C123.95 457.288 125.71 458.008 127.886 458.008C129.998 458.008 131.726 457.288 133.07 455.848C134.414 454.408 135.086 452.536 135.086 450.232C135.086 447.928 134.414 446.056 133.07 444.616C131.726 443.176 129.998 442.456 127.886 442.456ZM162.25 437.08C165.194 437.08 167.514 437.976 169.21 439.768C170.906 441.528 171.754 443.928 171.754 446.968V463H165.466V448.792C165.466 447 164.954 445.592 163.93 444.568C162.906 443.512 161.514 442.984 159.754 442.984C157.674 443.016 156.026 443.72 154.81 445.096C153.626 446.472 153.034 448.232 153.034 450.376V463H146.794V437.32H153.034V442.12C154.794 438.824 157.866 437.144 162.25 437.08ZM194.219 437.08C197.163 437.08 199.483 437.976 201.179 439.768C202.875 441.528 203.723 443.928 203.723 446.968V463H197.435V448.792C197.435 447 196.923 445.592 195.899 444.568C194.875 443.512 193.483 442.984 191.723 442.984C189.643 443.016 187.995 443.72 186.779 445.096C185.595 446.472 185.003 448.232 185.003 450.376V463H178.763V437.32H185.003V442.12C186.763 438.824 189.835 437.144 194.219 437.08ZM221.436 437.128C225.532 437.128 228.604 438.296 230.652 440.632C232.732 442.968 233.772 446.248 233.772 450.472C233.772 451.304 233.756 451.928 233.724 452.344H214.764C215.18 454.168 216.028 455.608 217.308 456.664C218.62 457.688 220.22 458.2 222.108 458.2C223.42 458.2 224.668 457.96 225.852 457.48C227.068 456.968 228.124 456.248 229.02 455.32L232.38 458.824C231.1 460.232 229.532 461.32 227.676 462.088C225.852 462.856 223.82 463.24 221.58 463.24C218.956 463.24 216.636 462.696 214.62 461.608C212.636 460.52 211.1 459 210.012 457.048C208.924 455.064 208.38 452.792 208.38 450.232C208.38 447.672 208.924 445.4 210.012 443.416C211.132 441.432 212.684 439.896 214.668 438.808C216.652 437.688 218.908 437.128 221.436 437.128ZM228.06 448.168C227.996 446.28 227.372 444.776 226.188 443.656C225.004 442.536 223.436 441.976 221.484 441.976C219.66 441.976 218.124 442.536 216.876 443.656C215.66 444.744 214.908 446.248 214.62 448.168H228.06ZM256.802 445.432C255.074 443.544 252.834 442.6 250.082 442.6C248.002 442.6 246.306 443.304 244.994 444.712C243.714 446.12 243.074 447.944 243.074 450.184C243.074 452.488 243.714 454.344 244.994 455.752C246.306 457.16 248.002 457.864 250.082 457.864C253.154 457.864 255.458 456.856 256.994 454.84L260.882 458.056C259.73 459.72 258.21 461 256.322 461.896C254.434 462.792 252.242 463.24 249.746 463.24C247.218 463.24 244.962 462.696 242.978 461.608C241.026 460.52 239.506 459 238.418 457.048C237.33 455.064 236.786 452.792 236.786 450.232C236.786 447.64 237.33 445.352 238.418 443.368C239.538 441.384 241.074 439.848 243.026 438.76C245.01 437.672 247.282 437.128 249.842 437.128C252.178 437.128 254.258 437.544 256.082 438.376C257.938 439.176 259.442 440.328 260.594 441.832L256.802 445.432ZM281.256 461.416C279.208 462.664 277.064 463.288 274.824 463.288C272.616 463.288 270.808 462.648 269.4 461.368C267.992 460.056 267.288 458.136 267.288 455.608V442.936H263.688L263.64 438.376H267.288V431.32H273.48V438.376H280.824V442.936H273.48V454.504C273.48 455.688 273.704 456.536 274.152 457.048C274.6 457.528 275.272 457.768 276.168 457.768C277.128 457.768 278.344 457.416 279.816 456.712L281.256 461.416ZM287.642 456.52C288.602 456.52 289.386 456.84 289.994 457.48C290.634 458.12 290.954 458.936 290.954 459.928C290.954 460.952 290.634 461.8 289.994 462.472C289.386 463.112 288.602 463.432 287.642 463.432C286.714 463.432 285.93 463.096 285.29 462.424C284.682 461.752 284.378 460.92 284.378 459.928C284.378 458.936 284.682 458.12 285.29 457.48C285.93 456.84 286.714 456.52 287.642 456.52Z" fill="white"/>
<g opacity="0.6">
<path d="M253 752C253 812.751 203.751 862 143 862C82.2487 862 33 812.751 33 752C33 691.249 82.2487 642 143 642C203.751 642 253 691.249 253 752Z" fill="white"/>
<circle cx="195.111" cy="768.111" r="6.11111" fill="#C6BCB8"/>
<circle cx="219.555" cy="768.111" r="6.11111" fill="#C6BCB8"/>
<circle cx="244" cy="768.111" r="6.11111" fill="#C6BCB8"/>
<circle cx="268.445" cy="768.111" r="6.11111" fill="#C6BCB8"/>
<circle cx="292.889" cy="768.111" r="6.11111" fill="#C6BCB8"/>
<circle cx="195.111" cy="792.555" r="6.11111" fill="#C6BCB8"/>
<circle cx="219.555" cy="792.556" r="6.11111" fill="#C6BCB8"/>
<circle cx="244" cy="792.556" r="6.11111" fill="#C6BCB8"/>
<circle cx="268.445" cy="792.556" r="6.11111" fill="#C6BCB8"/>
<circle cx="292.889" cy="792.556" r="6.11111" fill="#C6BCB8"/>
<circle cx="195.111" cy="816.999" r="6.11111" fill="#C6BCB8"/>
<circle cx="219.555" cy="816.999" r="6.11111" fill="#C6BCB8"/>
<circle cx="244" cy="816.999" r="6.11111" fill="#C6BCB8"/>
<circle cx="268.445" cy="816.999" r="6.11111" fill="#C6BCB8"/>
<circle cx="292.889" cy="816.999" r="6.11111" fill="#C6BCB8"/>
<circle cx="195.111" cy="841.445" r="6.11111" fill="#C6BCB8"/>
<circle cx="219.555" cy="841.445" r="6.11111" fill="#C6BCB8"/>
<circle cx="244" cy="841.445" r="6.11111" fill="#C6BCB8"/>
<circle cx="268.445" cy="841.445" r="6.11111" fill="#C6BCB8"/>
<circle cx="292.889" cy="841.445" r="6.11111" fill="#C6BCB8"/>
<circle cx="195.111" cy="865.889" r="6.11111" fill="#C6BCB8"/>
<circle cx="219.555" cy="865.89" r="6.11111" fill="#C6BCB8"/>
<circle cx="244" cy="865.89" r="6.11111" fill="#C6BCB8"/>
<circle cx="268.445" cy="865.89" r="6.11111" fill="#C6BCB8"/>
<circle cx="292.889" cy="865.89" r="6.11111" fill="#C6BCB8"/>
</g>
<g opacity="0.6">
<path d="M550 385.5C550 420.018 522.018 448 487.5 448C452.982 448 425 420.018 425 385.5C425 350.982 452.982 323 487.5 323C522.018 323 550 350.982 550 385.5Z" fill="white"/>
<circle cx="509.107" cy="414.5" r="3.61111" transform="rotate(-45 509.107 414.5)" fill="#C6BCB8"/>
<circle cx="519.321" cy="404.286" r="3.61111" transform="rotate(-45 519.321 404.286)" fill="#C6BCB8"/>
<circle cx="529.535" cy="394.073" r="3.61111" transform="rotate(-45 529.535 394.073)" fill="#C6BCB8"/>
<circle cx="539.748" cy="383.859" r="3.61111" transform="rotate(-45 539.748 383.859)" fill="#C6BCB8"/>
<circle cx="549.962" cy="373.645" r="3.61111" transform="rotate(-45 549.962 373.645)" fill="#C6BCB8"/>
<circle cx="519.321" cy="424.714" r="3.61111" transform="rotate(-45 519.321 424.714)" fill="#C6BCB8"/>
<circle cx="529.535" cy="414.5" r="3.61111" transform="rotate(-45 529.535 414.5)" fill="#C6BCB8"/>
<circle cx="539.748" cy="404.286" r="3.61111" transform="rotate(-45 539.748 404.286)" fill="#C6BCB8"/>
<circle cx="549.962" cy="394.073" r="3.61111" transform="rotate(-45 549.962 394.073)" fill="#C6BCB8"/>
<circle cx="560.176" cy="383.859" r="3.61111" transform="rotate(-45 560.176 383.859)" fill="#C6BCB8"/>
<circle cx="529.535" cy="434.927" r="3.61111" transform="rotate(-45 529.535 434.927)" fill="#C6BCB8"/>
<circle cx="539.748" cy="424.714" r="3.61111" transform="rotate(-45 539.748 424.714)" fill="#C6BCB8"/>
<circle cx="549.962" cy="414.5" r="3.61111" transform="rotate(-45 549.962 414.5)" fill="#C6BCB8"/>
<circle cx="560.176" cy="404.286" r="3.61111" transform="rotate(-45 560.176 404.286)" fill="#C6BCB8"/>
<circle cx="570.39" cy="394.073" r="3.61111" transform="rotate(-45 570.39 394.073)" fill="#C6BCB8"/>
<circle cx="539.748" cy="445.141" r="3.61111" transform="rotate(-45 539.748 445.141)" fill="#C6BCB8"/>
<circle cx="549.962" cy="434.927" r="3.61111" transform="rotate(-45 549.962 434.927)" fill="#C6BCB8"/>
<circle cx="560.176" cy="424.714" r="3.61111" transform="rotate(-45 560.176 424.714)" fill="#C6BCB8"/>
<circle cx="570.389" cy="414.5" r="3.61111" transform="rotate(-45 570.389 414.5)" fill="#C6BCB8"/>
<circle cx="580.603" cy="404.286" r="3.61111" transform="rotate(-45 580.603 404.286)" fill="#C6BCB8"/>
<circle cx="549.962" cy="455.355" r="3.61111" transform="rotate(-45 549.962 455.355)" fill="#C6BCB8"/>
<circle cx="560.176" cy="445.141" r="3.61111" transform="rotate(-45 560.176 445.141)" fill="#C6BCB8"/>
<circle cx="570.39" cy="434.927" r="3.61111" transform="rotate(-45 570.39 434.927)" fill="#C6BCB8"/>
<circle cx="580.603" cy="424.714" r="3.61111" transform="rotate(-45 580.603 424.714)" fill="#C6BCB8"/>
<circle cx="590.817" cy="414.5" r="3.61111" transform="rotate(-45 590.817 414.5)" fill="#C6BCB8"/>
</g>
</svg>
