<svg width="164" height="52" viewBox="0 0 164 52" fill="none" xmlns="http://www.w3.org/2000/svg">
<rect x="0.5" y="0.5" width="163" height="51" rx="9.5" stroke="#C6BCB8"/>
<path d="M66.5703 17.0674C66.3294 17.4124 65.9925 17.6712 65.5596 17.8438C65.1299 18.013 64.6286 18.0977 64.0557 18.0977C63.4762 18.0977 62.9619 17.9626 62.5127 17.6924C62.0635 17.4189 61.7152 17.0316 61.4678 16.5303C61.2236 16.029 61.0983 15.4479 61.0918 14.7871V14.167C61.0918 13.096 61.3408 12.266 61.8389 11.6768C62.3402 11.0876 63.0433 10.793 63.9482 10.793C64.6904 10.793 65.2878 10.9834 65.7402 11.3643C66.1927 11.7419 66.4694 12.279 66.5703 12.9756H65.6328C65.457 12.0348 64.8971 11.5645 63.9531 11.5645C63.3249 11.5645 62.848 11.7858 62.5225 12.2285C62.2002 12.668 62.0374 13.306 62.0342 14.1426V14.7236C62.0342 15.5212 62.2165 16.1559 62.5811 16.6279C62.9456 17.0967 63.4388 17.3311 64.0605 17.3311C64.4121 17.3311 64.7197 17.292 64.9834 17.2139C65.2471 17.1357 65.4652 17.0039 65.6377 16.8184V15.2217H63.9922V14.46H66.5703V17.0674ZM70.1885 18.0977C69.4723 18.0977 68.8896 17.8633 68.4404 17.3945C67.9912 16.9225 67.7666 16.2926 67.7666 15.5049V15.3389C67.7666 14.8148 67.8659 14.3477 68.0645 13.9375C68.2663 13.5241 68.5462 13.2018 68.9043 12.9707C69.2656 12.7363 69.6562 12.6191 70.0762 12.6191C70.763 12.6191 71.2969 12.8454 71.6777 13.2979C72.0586 13.7503 72.249 14.3981 72.249 15.2412V15.6172H68.6699C68.6829 16.138 68.8343 16.5596 69.124 16.8818C69.417 17.2008 69.7881 17.3604 70.2373 17.3604C70.5563 17.3604 70.8265 17.2952 71.0479 17.165C71.2692 17.0348 71.4629 16.8623 71.6289 16.6475L72.1807 17.0771C71.738 17.7575 71.0739 18.0977 70.1885 18.0977ZM70.0762 13.3613C69.7116 13.3613 69.4056 13.4948 69.1582 13.7617C68.9108 14.0254 68.7578 14.3965 68.6992 14.875H71.3457V14.8066C71.3197 14.3477 71.196 13.9928 70.9746 13.7422C70.7533 13.4883 70.4538 13.3613 70.0762 13.3613ZM74.5244 11.4375V12.7168H75.5107V13.415H74.5244V16.6914C74.5244 16.903 74.5684 17.0625 74.6562 17.1699C74.7441 17.2741 74.8939 17.3262 75.1055 17.3262C75.2096 17.3262 75.3529 17.3066 75.5352 17.2676V18C75.2975 18.0651 75.0664 18.0977 74.8418 18.0977C74.4382 18.0977 74.1338 17.9756 73.9287 17.7314C73.7236 17.4873 73.6211 17.1406 73.6211 16.6914V13.415H72.6592V12.7168H73.6211V11.4375H74.5244ZM80.0322 18H79.1289V12.7168H80.0322V18ZM79.0557 11.3154C79.0557 11.1689 79.0996 11.0452 79.1875 10.9443C79.2786 10.8434 79.4121 10.793 79.5879 10.793C79.7637 10.793 79.8971 10.8434 79.9883 10.9443C80.0794 11.0452 80.125 11.1689 80.125 11.3154C80.125 11.4619 80.0794 11.584 79.9883 11.6816C79.8971 11.7793 79.7637 11.8281 79.5879 11.8281C79.4121 11.8281 79.2786 11.7793 79.1875 11.6816C79.0996 11.584 79.0557 11.4619 79.0557 11.3154ZM82.708 11.4375V12.7168H83.6943V13.415H82.708V16.6914C82.708 16.903 82.752 17.0625 82.8398 17.1699C82.9277 17.2741 83.0775 17.3262 83.2891 17.3262C83.3932 17.3262 83.5365 17.3066 83.7188 17.2676V18C83.4811 18.0651 83.25 18.0977 83.0254 18.0977C82.6217 18.0977 82.3174 17.9756 82.1123 17.7314C81.9072 17.4873 81.8047 17.1406 81.8047 16.6914V13.415H80.8428V12.7168H81.8047V11.4375H82.708ZM86.9951 15.3096C86.9951 14.792 87.096 14.3265 87.2979 13.9131C87.5029 13.4997 87.7861 13.1807 88.1475 12.9561C88.512 12.7314 88.9271 12.6191 89.3926 12.6191C90.112 12.6191 90.693 12.8682 91.1357 13.3662C91.5817 13.8643 91.8047 14.5267 91.8047 15.3535V15.417C91.8047 15.9313 91.7054 16.3936 91.5068 16.8037C91.3115 17.2106 91.0299 17.528 90.6621 17.7559C90.2975 17.9837 89.8776 18.0977 89.4023 18.0977C88.6862 18.0977 88.1051 17.8486 87.6592 17.3506C87.2165 16.8525 86.9951 16.1934 86.9951 15.373V15.3096ZM87.9033 15.417C87.9033 16.0029 88.0384 16.4733 88.3086 16.8281C88.582 17.1829 88.9466 17.3604 89.4023 17.3604C89.8613 17.3604 90.2259 17.1813 90.4961 16.8232C90.7663 16.4619 90.9014 15.9574 90.9014 15.3096C90.9014 14.7301 90.763 14.2614 90.4863 13.9033C90.2129 13.542 89.8483 13.3613 89.3926 13.3613C88.9466 13.3613 88.5869 13.5387 88.3135 13.8936C88.04 14.2484 87.9033 14.7562 87.9033 15.417ZM93.792 12.7168L93.8213 13.3809C94.2249 12.873 94.7523 12.6191 95.4033 12.6191C96.5199 12.6191 97.083 13.249 97.0928 14.5088V18H96.1895V14.5039C96.1862 14.123 96.0983 13.8415 95.9258 13.6592C95.7565 13.4769 95.4912 13.3857 95.1299 13.3857C94.8369 13.3857 94.5798 13.4639 94.3584 13.6201C94.137 13.7764 93.9645 13.9814 93.8408 14.2354V18H92.9375V12.7168H93.792Z" fill="white"/>
<path d="M70.2148 36.5078C69.8294 37.0599 69.2904 37.474 68.5977 37.75C67.9102 38.0208 67.1081 38.1562 66.1914 38.1562C65.2643 38.1562 64.4414 37.9401 63.7227 37.5078C63.0039 37.0703 62.4466 36.4505 62.0508 35.6484C61.6602 34.8464 61.4596 33.9167 61.4492 32.8594V31.8672C61.4492 30.1536 61.8477 28.8255 62.6445 27.8828C63.4466 26.9401 64.5716 26.4688 66.0195 26.4688C67.207 26.4688 68.1628 26.7734 68.8867 27.3828C69.6107 27.987 70.0534 28.8464 70.2148 29.9609H68.7148C68.4336 28.4557 67.5378 27.7031 66.0273 27.7031C65.0221 27.7031 64.2591 28.0573 63.7383 28.7656C63.2227 29.4688 62.9622 30.4896 62.957 31.8281V32.7578C62.957 34.0339 63.2487 35.0495 63.832 35.8047C64.4154 36.5547 65.2044 36.9297 66.1992 36.9297C66.7617 36.9297 67.2539 36.8672 67.6758 36.7422C68.0977 36.6172 68.4466 36.4062 68.7227 36.1094V33.5547H66.0898V32.3359H70.2148V36.5078ZM72.1133 33.6953C72.1133 32.8672 72.2747 32.1224 72.5977 31.4609C72.9258 30.7995 73.3789 30.2891 73.957 29.9297C74.5404 29.5703 75.2044 29.3906 75.9492 29.3906C77.1003 29.3906 78.0299 29.7891 78.7383 30.5859C79.4518 31.3828 79.8086 32.4427 79.8086 33.7656V33.8672C79.8086 34.6901 79.6497 35.4297 79.332 36.0859C79.0195 36.737 78.569 37.2448 77.9805 37.6094C77.3971 37.974 76.7253 38.1562 75.9648 38.1562C74.819 38.1562 73.8893 37.7578 73.1758 36.9609C72.4674 36.1641 72.1133 35.1094 72.1133 33.7969V33.6953ZM73.5664 33.8672C73.5664 34.8047 73.7826 35.5573 74.2148 36.125C74.6523 36.6927 75.2357 36.9766 75.9648 36.9766C76.6992 36.9766 77.2826 36.6901 77.7148 36.1172C78.1471 35.5391 78.3633 34.7318 78.3633 33.6953C78.3633 32.7682 78.1419 32.0182 77.6992 31.4453C77.2617 30.8672 76.6784 30.5781 75.9492 30.5781C75.2357 30.5781 74.6602 30.862 74.2227 31.4297C73.7852 31.9974 73.5664 32.8099 73.5664 33.8672ZM81.2383 33.6953C81.2383 32.8672 81.3997 32.1224 81.7227 31.4609C82.0508 30.7995 82.5039 30.2891 83.082 29.9297C83.6654 29.5703 84.3294 29.3906 85.0742 29.3906C86.2253 29.3906 87.1549 29.7891 87.8633 30.5859C88.5768 31.3828 88.9336 32.4427 88.9336 33.7656V33.8672C88.9336 34.6901 88.7747 35.4297 88.457 36.0859C88.1445 36.737 87.694 37.2448 87.1055 37.6094C86.5221 37.974 85.8503 38.1562 85.0898 38.1562C83.944 38.1562 83.0143 37.7578 82.3008 36.9609C81.5924 36.1641 81.2383 35.1094 81.2383 33.7969V33.6953ZM82.6914 33.8672C82.6914 34.8047 82.9076 35.5573 83.3398 36.125C83.7773 36.6927 84.3607 36.9766 85.0898 36.9766C85.8242 36.9766 86.4076 36.6901 86.8398 36.1172C87.2721 35.5391 87.4883 34.7318 87.4883 33.6953C87.4883 32.7682 87.2669 32.0182 86.8242 31.4453C86.3867 30.8672 85.8034 30.5781 85.0742 30.5781C84.3607 30.5781 83.7852 30.862 83.3477 31.4297C82.9102 31.9974 82.6914 32.8099 82.6914 33.8672ZM90.4023 33.7031C90.4023 32.3854 90.707 31.3385 91.3164 30.5625C91.9258 29.7812 92.7331 29.3906 93.7383 29.3906C94.7695 29.3906 95.5742 29.7552 96.1523 30.4844L96.2227 29.5469H97.543V37.7969C97.543 38.8906 97.2174 39.7526 96.5664 40.3828C95.9206 41.013 95.0508 41.3281 93.957 41.3281C93.3477 41.3281 92.7513 41.1979 92.168 40.9375C91.5846 40.6771 91.1393 40.3203 90.832 39.8672L91.582 39C92.2018 39.7656 92.9596 40.1484 93.8555 40.1484C94.5586 40.1484 95.1055 39.9505 95.4961 39.5547C95.8919 39.1589 96.0898 38.6016 96.0898 37.8828V37.1562C95.5117 37.8229 94.7227 38.1562 93.7227 38.1562C92.7331 38.1562 91.931 37.7578 91.3164 36.9609C90.707 36.1641 90.4023 35.0781 90.4023 33.7031ZM91.8555 33.8672C91.8555 34.8203 92.0508 35.5703 92.4414 36.1172C92.832 36.6589 93.3789 36.9297 94.082 36.9297C94.9935 36.9297 95.6628 36.5156 96.0898 35.6875V31.8281C95.6471 31.0208 94.9831 30.6172 94.0977 30.6172C93.3945 30.6172 92.8451 30.8906 92.4492 31.4375C92.0534 31.9844 91.8555 32.7943 91.8555 33.8672ZM101.301 38H99.8555V26H101.301V38ZM107.129 38.1562C105.983 38.1562 105.051 37.7812 104.332 37.0312C103.613 36.276 103.254 35.2682 103.254 34.0078V33.7422C103.254 32.9036 103.413 32.1562 103.73 31.5C104.053 30.8385 104.501 30.3229 105.074 29.9531C105.652 29.5781 106.277 29.3906 106.949 29.3906C108.048 29.3906 108.902 29.7526 109.512 30.4766C110.121 31.2005 110.426 32.237 110.426 33.5859V34.1875H104.699C104.72 35.0208 104.962 35.6953 105.426 36.2109C105.895 36.7214 106.488 36.9766 107.207 36.9766C107.717 36.9766 108.15 36.8724 108.504 36.6641C108.858 36.4557 109.168 36.1797 109.434 35.8359L110.316 36.5234C109.608 37.612 108.546 38.1562 107.129 38.1562ZM106.949 30.5781C106.366 30.5781 105.876 30.7917 105.48 31.2188C105.085 31.6406 104.84 32.2344 104.746 33H108.98V32.8906C108.939 32.1562 108.741 31.5885 108.387 31.1875C108.033 30.7812 107.553 30.5781 106.949 30.5781ZM117.801 33.5469V38H116.301V26.625H120.496C121.741 26.625 122.715 26.9427 123.418 27.5781C124.126 28.2135 124.48 29.0547 124.48 30.1016C124.48 31.2057 124.134 32.0573 123.441 32.6562C122.754 33.25 121.767 33.5469 120.48 33.5469H117.801ZM117.801 32.3203H120.496C121.298 32.3203 121.913 32.1328 122.34 31.7578C122.767 31.3776 122.98 30.8307 122.98 30.1172C122.98 29.4401 122.767 28.8984 122.34 28.4922C121.913 28.0859 121.327 27.875 120.582 27.8594H117.801V32.3203ZM127.738 38H126.293V26H127.738V38ZM135.277 38C135.194 37.8333 135.126 37.5365 135.074 37.1094C134.402 37.8073 133.6 38.1562 132.668 38.1562C131.835 38.1562 131.15 37.9219 130.613 37.4531C130.082 36.9792 129.816 36.3802 129.816 35.6562C129.816 34.776 130.15 34.0938 130.816 33.6094C131.488 33.1198 132.431 32.875 133.645 32.875H135.051V32.2109C135.051 31.7057 134.9 31.3047 134.598 31.0078C134.296 30.7057 133.85 30.5547 133.262 30.5547C132.746 30.5547 132.314 30.6849 131.965 30.9453C131.616 31.2057 131.441 31.5208 131.441 31.8906H129.988C129.988 31.4688 130.137 31.0625 130.434 30.6719C130.736 30.276 131.142 29.9635 131.652 29.7344C132.168 29.5052 132.733 29.3906 133.348 29.3906C134.322 29.3906 135.085 29.6354 135.637 30.125C136.189 30.6094 136.475 31.2786 136.496 32.1328V36.0234C136.496 36.7995 136.595 37.4167 136.793 37.875V38H135.277ZM132.879 36.8984C133.332 36.8984 133.762 36.7812 134.168 36.5469C134.574 36.3125 134.868 36.0078 135.051 35.6328V33.8984H133.918C132.147 33.8984 131.262 34.4167 131.262 35.4531C131.262 35.9062 131.413 36.2604 131.715 36.5156C132.017 36.7708 132.405 36.8984 132.879 36.8984ZM141.402 35.8828L143.371 29.5469H144.918L141.52 39.3047C140.993 40.7109 140.158 41.4141 139.012 41.4141L138.738 41.3906L138.199 41.2891V40.1172L138.59 40.1484C139.079 40.1484 139.46 40.0495 139.73 39.8516C140.007 39.6536 140.233 39.2917 140.41 38.7656L140.73 37.9062L137.715 29.5469H139.293L141.402 35.8828Z" fill="white"/>
<path d="M32.7085 24.905L31.1108 26.5715L18.5122 39.7127C18.1826 39.2327 18 38.6572 18 38.0449V11.9543C18 11.2957 18.2107 10.6794 18.5898 10.1785L31.1108 23.2388L32.7085 24.905Z" fill="#6AA9FF"/>
<path d="M38.614 18.7458L34.0088 23.5495L31.1111 20.5276L20.1641 9.10935C20.9165 8.8972 21.7229 8.99363 22.4253 9.39964L31.1111 14.414L38.614 18.7458Z" fill="#A8EBFA"/>
<path d="M45.0208 22.4448L40.2876 19.7122L35.3086 24.9053L40.4041 30.22L45.0208 27.5547C45.9443 27.0215 46.4959 26.0662 46.4959 24.9998C46.4959 23.9331 45.9443 22.978 45.0208 22.4448Z" fill="#FF9F00"/>
<path d="M38.7307 31.1863L31.1113 35.5852V29.2834L34.009 26.2612L38.7307 31.1863Z" fill="#FF3636"/>
</svg>
