<svg width="32" height="32" viewBox="0 0 32 32" fill="none" xmlns="http://www.w3.org/2000/svg">
<circle cx="16" cy="16" r="15" fill="white" stroke="#925EB0" stroke-width="2"/>
<path d="M15.9998 19.2C17.7671 19.2 19.1998 17.7673 19.1998 16C19.1998 14.2327 17.7671 12.8 15.9998 12.8C14.2325 12.8 12.7998 14.2327 12.7998 16C12.7998 17.7673 14.2325 19.2 15.9998 19.2Z" fill="#696466"/>
<path d="M13 6L11.17 8H8C6.9 8 6 8.9 6 10V22C6 23.1 6.9 24 8 24H24C25.1 24 26 23.1 26 22V10C26 8.9 25.1 8 24 8H20.83L19 6H13ZM16 21C13.24 21 11 18.76 11 16C11 13.24 13.24 11 16 11C18.76 11 21 13.24 21 16C21 18.76 18.76 21 16 21Z" fill="#696466"/>
</svg>
