<svg width="174" height="93" viewBox="0 0 174 93" fill="none" xmlns="http://www.w3.org/2000/svg">
    <g opacity=".4">
        <circle cx="87.107" cy="46.5" r="3.611" transform="rotate(-45 87.107 46.5)" fill="#925EB0"/>
        <circle cx="97.32" cy="36.287" r="3.611" transform="rotate(-45 97.32 36.287)" fill="#925EB0"/>
        <circle cx="107.534" cy="26.072" r="3.611" transform="rotate(-45 107.534 26.072)" fill="#925EB0"/>
        <circle cx="117.748" cy="15.859" r="3.611" transform="rotate(-45 117.748 15.86)" fill="#925EB0"/>
        <circle cx="127.962" cy="5.645" r="3.611" transform="rotate(-45 127.962 5.645)" fill="#925EB0"/>
        <circle cx="97.32" cy="56.713" r="3.611" transform="rotate(-45 97.32 56.713)" fill="#925EB0"/>
        <circle cx="107.534" cy="46.5" r="3.611" transform="rotate(-45 107.534 46.5)" fill="#925EB0"/>
        <circle cx="117.748" cy="36.285" r="3.611" transform="rotate(-45 117.748 36.285)" fill="#925EB0"/>
        <circle cx="127.962" cy="26.072" r="3.611" transform="rotate(-45 127.962 26.072)" fill="#925EB0"/>
        <circle cx="138.176" cy="15.857" r="3.611" transform="rotate(-45 138.176 15.857)" fill="#925EB0"/>
        <circle cx="107.534" cy="66.926" r="3.611" transform="rotate(-45 107.534 66.926)" fill="#925EB0"/>
        <circle cx="117.747" cy="56.713" r="3.611" transform="rotate(-45 117.747 56.713)" fill="#925EB0"/>
        <circle cx="127.96" cy="46.498" r="3.611" transform="rotate(-45 127.96 46.498)" fill="#925EB0"/>
        <circle cx="138.175" cy="36.285" r="3.611" transform="rotate(-45 138.175 36.285)" fill="#925EB0"/>
        <circle cx="148.388" cy="26.07" r="3.611" transform="rotate(-45 148.388 26.07)" fill="#925EB0"/>
        <circle cx="117.748" cy="77.141" r="3.611" transform="rotate(-45 117.748 77.14)" fill="#925EB0"/>
        <circle cx="127.961" cy="66.928" r="3.611" transform="rotate(-45 127.961 66.928)" fill="#925EB0"/>
        <circle cx="138.175" cy="56.713" r="3.611" transform="rotate(-45 138.175 56.713)" fill="#925EB0"/>
        <circle cx="148.39" cy="46.5" r="3.611" transform="rotate(-45 148.39 46.5)" fill="#925EB0"/>
        <circle cx="158.603" cy="36.285" r="3.611" transform="rotate(-45 158.603 36.285)" fill="#925EB0"/>
        <circle cx="127.96" cy="87.353" r="3.611" transform="rotate(-45 127.96 87.353)" fill="#925EB0"/>
        <circle cx="138.174" cy="77.141" r="3.611" transform="rotate(-45 138.174 77.14)" fill="#925EB0"/>
        <circle cx="148.388" cy="66.926" r="3.611" transform="rotate(-45 148.388 66.926)" fill="#925EB0"/>
        <circle cx="158.602" cy="56.713" r="3.611" transform="rotate(-45 158.602 56.713)" fill="#925EB0"/>
        <circle cx="168.815" cy="46.498" r="3.611" transform="rotate(-45 168.815 46.498)" fill="#925EB0"/>
        <circle cx="5.107" cy="46.488" r="3.611" transform="rotate(-45 5.107 46.488)" fill="#FFE22A"/>
        <circle cx="15.32" cy="36.275" r="3.611" transform="rotate(-45 15.32 36.275)" fill="#FFE22A"/>
        <circle cx="25.534" cy="26.061" r="3.611" transform="rotate(-45 25.534 26.06)" fill="#FFE22A"/>
        <circle cx="35.748" cy="15.848" r="3.611" transform="rotate(-45 35.748 15.848)" fill="#FFE22A"/>
        <circle cx="45.962" cy="5.633" r="3.611" transform="rotate(-45 45.962 5.633)" fill="#FFE22A"/>
        <circle cx="15.32" cy="56.701" r="3.611" transform="rotate(-45 15.32 56.701)" fill="#FFE22A"/>
        <circle cx="25.534" cy="46.488" r="3.611" transform="rotate(-45 25.534 46.488)" fill="#FFE22A"/>
        <circle cx="35.748" cy="36.273" r="3.611" transform="rotate(-45 35.748 36.273)" fill="#FFE22A"/>
        <circle cx="45.962" cy="26.061" r="3.611" transform="rotate(-45 45.962 26.06)" fill="#FFE22A"/>
        <circle cx="56.176" cy="15.846" r="3.611" transform="rotate(-45 56.176 15.846)" fill="#FFE22A"/>
        <circle cx="25.534" cy="66.914" r="3.611" transform="rotate(-45 25.534 66.914)" fill="#FFE22A"/>
        <circle cx="35.746" cy="56.701" r="3.611" transform="rotate(-45 35.746 56.701)" fill="#FFE22A"/>
        <circle cx="45.96" cy="46.486" r="3.611" transform="rotate(-45 45.96 46.486)" fill="#FFE22A"/>
        <circle cx="56.175" cy="36.273" r="3.611" transform="rotate(-45 56.175 36.273)" fill="#FFE22A"/>
        <circle cx="66.388" cy="26.059" r="3.611" transform="rotate(-45 66.388 26.059)" fill="#FFE22A"/>
        <circle cx="35.748" cy="77.129" r="3.611" transform="rotate(-45 35.748 77.129)" fill="#FFE22A"/>
        <circle cx="45.961" cy="66.916" r="3.611" transform="rotate(-45 45.961 66.916)" fill="#FFE22A"/>
        <circle cx="56.175" cy="56.701" r="3.611" transform="rotate(-45 56.175 56.701)" fill="#FFE22A"/>
        <circle cx="66.39" cy="46.488" r="3.611" transform="rotate(-45 66.39 46.488)" fill="#FFE22A"/>
        <circle cx="76.603" cy="36.273" r="3.611" transform="rotate(-45 76.603 36.273)" fill="#FFE22A"/>
        <circle cx="45.96" cy="87.342" r="3.611" transform="rotate(-45 45.96 87.342)" fill="#FFE22A"/>
        <circle cx="56.174" cy="77.129" r="3.611" transform="rotate(-45 56.174 77.129)" fill="#FFE22A"/>
        <circle cx="66.388" cy="66.914" r="3.611" transform="rotate(-45 66.388 66.914)" fill="#FFE22A"/>
        <circle cx="76.602" cy="56.701" r="3.611" transform="rotate(-45 76.602 56.701)" fill="#FFE22A"/>
        <circle cx="86.815" cy="46.486" r="3.611" transform="rotate(-45 86.815 46.486)" fill="#FFE22A"/>
    </g>
</svg>
