<svg width="171" height="138" viewBox="0 0 171 138" fill="none" xmlns="http://www.w3.org/2000/svg">
    <g opacity=".6">
        <path d="M125 62.5c0 34.518-27.982 62.5-62.5 62.5S0 97.018 0 62.5 27.982 0 62.5 0 125 27.982 125 62.5z" fill="#fff"/>
        <circle cx="84.107" cy="91.5" r="3.611" transform="rotate(-45 84.107 91.5)" fill="#C6BCB8"/>
        <circle cx="94.321" cy="81.287" r="3.611" transform="rotate(-45 94.32 81.287)" fill="#C6BCB8"/>
        <circle cx="104.535" cy="71.072" r="3.611" transform="rotate(-45 104.535 71.072)" fill="#C6BCB8"/>
        <circle cx="114.748" cy="60.859" r="3.611" transform="rotate(-45 114.748 60.86)" fill="#C6BCB8"/>
        <circle cx="124.962" cy="50.645" r="3.611" transform="rotate(-45 124.962 50.645)" fill="#C6BCB8"/>
        <circle cx="94.321" cy="101.713" r="3.611" transform="rotate(-45 94.32 101.713)" fill="#C6BCB8"/>
        <circle cx="104.535" cy="91.5" r="3.611" transform="rotate(-45 104.535 91.5)" fill="#C6BCB8"/>
        <circle cx="114.748" cy="81.285" r="3.611" transform="rotate(-45 114.748 81.285)" fill="#C6BCB8"/>
        <circle cx="124.962" cy="71.072" r="3.611" transform="rotate(-45 124.962 71.072)" fill="#C6BCB8"/>
        <circle cx="135.176" cy="60.857" r="3.611" transform="rotate(-45 135.176 60.857)" fill="#C6BCB8"/>
        <circle cx="104.535" cy="111.928" r="3.611" transform="rotate(-45 104.535 111.928)" fill="#C6BCB8"/>
        <circle cx="114.748" cy="101.715" r="3.611" transform="rotate(-45 114.748 101.715)" fill="#C6BCB8"/>
        <circle cx="124.962" cy="91.5" r="3.611" transform="rotate(-45 124.962 91.5)" fill="#C6BCB8"/>
        <circle cx="135.176" cy="81.287" r="3.611" transform="rotate(-45 135.176 81.287)" fill="#C6BCB8"/>
        <circle cx="145.39" cy="71.072" r="3.611" transform="rotate(-45 145.39 71.072)" fill="#C6BCB8"/>
        <circle cx="114.748" cy="122.141" r="3.611" transform="rotate(-45 114.748 122.141)" fill="#C6BCB8"/>
        <circle cx="124.962" cy="111.928" r="3.611" transform="rotate(-45 124.962 111.928)" fill="#C6BCB8"/>
        <circle cx="135.176" cy="101.713" r="3.611" transform="rotate(-45 135.176 101.713)" fill="#C6BCB8"/>
        <circle cx="145.389" cy="91.5" r="3.611" transform="rotate(-45 145.389 91.5)" fill="#C6BCB8"/>
        <circle cx="155.603" cy="81.285" r="3.611" transform="rotate(-45 155.603 81.285)" fill="#C6BCB8"/>
        <circle cx="124.962" cy="132.355" r="3.611" transform="rotate(-45 124.962 132.355)" fill="#C6BCB8"/>
        <circle cx="135.176" cy="122.143" r="3.611" transform="rotate(-45 135.176 122.143)" fill="#C6BCB8"/>
        <circle cx="145.39" cy="111.928" r="3.611" transform="rotate(-45 145.39 111.928)" fill="#C6BCB8"/>
        <circle cx="155.603" cy="101.715" r="3.611" transform="rotate(-45 155.603 101.715)" fill="#C6BCB8"/>
        <circle cx="165.817" cy="91.5" r="3.611" transform="rotate(-45 165.817 91.5)" fill="#C6BCB8"/>
    </g>
</svg>
