<svg width="167" height="145" viewBox="0 0 167 145" fill="none" xmlns="http://www.w3.org/2000/svg">
<g opacity="0.6">
<path d="M138.12 69.0601C138.12 107.201 107.201 138.12 69.0601 138.12C30.9193 138.12 0 107.201 0 69.0601C0 30.9193 30.9193 0 69.0601 0C107.201 0 138.12 30.9193 138.12 69.0601Z" fill="white"/>
<circle cx="101.777" cy="79.175" r="3.83667" fill="#C6BCB8"/>
<circle cx="117.123" cy="79.175" r="3.83667" fill="#C6BCB8"/>
<circle cx="132.47" cy="79.175" r="3.83667" fill="#C6BCB8"/>
<circle cx="147.817" cy="79.175" r="3.83667" fill="#C6BCB8"/>
<circle cx="163.163" cy="79.175" r="3.83667" fill="#C6BCB8"/>
<circle cx="101.776" cy="94.5215" r="3.83667" fill="#C6BCB8"/>
<circle cx="117.123" cy="94.522" r="3.83667" fill="#C6BCB8"/>
<circle cx="132.469" cy="94.522" r="3.83667" fill="#C6BCB8"/>
<circle cx="147.816" cy="94.522" r="3.83667" fill="#C6BCB8"/>
<circle cx="163.163" cy="94.522" r="3.83667" fill="#C6BCB8"/>
<circle cx="101.776" cy="109.868" r="3.83667" fill="#C6BCB8"/>
<circle cx="117.123" cy="109.868" r="3.83667" fill="#C6BCB8"/>
<circle cx="132.469" cy="109.868" r="3.83667" fill="#C6BCB8"/>
<circle cx="147.816" cy="109.868" r="3.83667" fill="#C6BCB8"/>
<circle cx="163.163" cy="109.868" r="3.83667" fill="#C6BCB8"/>
<circle cx="101.776" cy="125.215" r="3.83667" fill="#C6BCB8"/>
<circle cx="117.123" cy="125.215" r="3.83667" fill="#C6BCB8"/>
<circle cx="132.469" cy="125.215" r="3.83667" fill="#C6BCB8"/>
<circle cx="147.816" cy="125.215" r="3.83667" fill="#C6BCB8"/>
<circle cx="163.163" cy="125.215" r="3.83667" fill="#C6BCB8"/>
<circle cx="101.776" cy="140.562" r="3.83667" fill="#C6BCB8"/>
<circle cx="117.123" cy="140.562" r="3.83667" fill="#C6BCB8"/>
<circle cx="132.469" cy="140.562" r="3.83667" fill="#C6BCB8"/>
<circle cx="147.816" cy="140.562" r="3.83667" fill="#C6BCB8"/>
<circle cx="163.163" cy="140.562" r="3.83667" fill="#C6BCB8"/>
</g>
</svg>
