<svg width="266" height="230" viewBox="0 0 266 230" fill="none" xmlns="http://www.w3.org/2000/svg">
    <g opacity=".6">
        <path d="M220 110c0 60.751-49.249 110-110 110S0 170.751 0 110 49.249 0 110 0s110 49.249 110 110z" fill="#fff"/>
        <circle cx="162.111" cy="126.111" r="6.111" fill="#C6BCB8"/>
        <circle cx="186.555" cy="126.111" r="6.111" fill="#C6BCB8"/>
        <circle cx="211" cy="126.111" r="6.111" fill="#C6BCB8"/>
        <circle cx="235.445" cy="126.111" r="6.111" fill="#C6BCB8"/>
        <circle cx="259.889" cy="126.111" r="6.111" fill="#C6BCB8"/>
        <circle cx="162.111" cy="150.554" r="6.111" fill="#C6BCB8"/>
        <circle cx="186.555" cy="150.554" r="6.111" fill="#C6BCB8"/>
        <circle cx="211" cy="150.554" r="6.111" fill="#C6BCB8"/>
        <circle cx="235.445" cy="150.554" r="6.111" fill="#C6BCB8"/>
        <circle cx="259.889" cy="150.554" r="6.111" fill="#C6BCB8"/>
        <circle cx="162.111" cy="174.998" r="6.111" fill="#C6BCB8"/>
        <circle cx="186.555" cy="174.998" r="6.111" fill="#C6BCB8"/>
        <circle cx="211" cy="174.998" r="6.111" fill="#C6BCB8"/>
        <circle cx="235.445" cy="174.998" r="6.111" fill="#C6BCB8"/>
        <circle cx="259.889" cy="174.998" r="6.111" fill="#C6BCB8"/>
        <circle cx="162.111" cy="199.445" r="6.111" fill="#C6BCB8"/>
        <circle cx="186.555" cy="199.445" r="6.111" fill="#C6BCB8"/>
        <circle cx="211" cy="199.445" r="6.111" fill="#C6BCB8"/>
        <circle cx="235.445" cy="199.445" r="6.111" fill="#C6BCB8"/>
        <circle cx="259.889" cy="199.445" r="6.111" fill="#C6BCB8"/>
        <circle cx="162.111" cy="223.888" r="6.111" fill="#C6BCB8"/>
        <circle cx="186.555" cy="223.888" r="6.111" fill="#C6BCB8"/>
        <circle cx="211" cy="223.888" r="6.111" fill="#C6BCB8"/>
        <circle cx="235.445" cy="223.888" r="6.111" fill="#C6BCB8"/>
        <circle cx="259.889" cy="223.888" r="6.111" fill="#C6BCB8"/>
    </g>
</svg>
