<svg width="77" height="77" viewBox="0 0 77 77" fill="none" xmlns="http://www.w3.org/2000/svg">
<path d="M75.375 19.2941C77 17.6691 77 15.0441 75.375 13.4191L63.5833 1.62744C61.9583 0.00244139 59.3333 0.00244139 57.7083 1.62744L39 20.3358L22.7917 4.12744C19.5417 0.877442 14.25 0.877442 11 4.12744L3.08333 12.0441C-0.166667 15.2941 -0.166667 20.5858 3.08333 23.8358L19.2917 40.0441L0.5 58.8358V76.5025H18.1667L37 57.6691L53.2083 73.8775C57.1667 77.8358 62.5 76.3775 65 73.8775L72.9167 65.9608C76.1667 62.7108 76.1667 57.4191 72.9167 54.1691L56.7083 37.9608L75.375 19.2941ZM9 17.9191L16.875 10.0024L22.1667 15.2941L17.25 20.2524L23.125 26.1274L28.0833 21.1691L33.0833 26.1691L25.1667 34.0858L9 17.9191ZM55.7917 48.9191L50.8333 53.8774L56.7083 59.7524L61.6667 54.7941L66.9583 60.0858L59.0417 68.0024L42.8333 51.7941L50.75 43.8774L55.7917 48.9191ZM14.7083 68.1691H8.83333V62.2941L48.875 22.2524L54.2917 27.6691L54.75 28.1274L14.7083 68.1691ZM54.75 16.3358L60.625 10.4608L66.5 16.3358L60.625 22.2108L54.75 16.3358Z" fill="#42428B"/>
</svg>
