<svg width="84" height="84" viewBox="0 0 84 84" fill="none" xmlns="http://www.w3.org/2000/svg">
<path d="M42.0002 0.333252C19.0002 0.333252 0.333496 18.9999 0.333496 41.9999C0.333496 64.9999 19.0002 83.6666 42.0002 83.6666C65.0002 83.6666 83.6668 64.9999 83.6668 41.9999C83.6668 18.9999 65.0002 0.333252 42.0002 0.333252ZM42.0002 75.3333C23.6252 75.3333 8.66683 60.3749 8.66683 41.9999C8.66683 23.6249 23.6252 8.66659 42.0002 8.66659C60.3752 8.66659 75.3335 23.6249 75.3335 41.9999C75.3335 60.3749 60.3752 75.3333 42.0002 75.3333ZM19.0835 64.9166L50.3752 50.3749L64.9168 19.0833L33.6252 33.6249L19.0835 64.9166ZM42.0002 37.4166C44.5418 37.4166 46.5835 39.4583 46.5835 41.9999C46.5835 44.5416 44.5418 46.5833 42.0002 46.5833C39.4585 46.5833 37.4168 44.5416 37.4168 41.9999C37.4168 39.4583 39.4585 37.4166 42.0002 37.4166Z" fill="#42428B"/>
</svg>
