<svg width="100" height="100" viewBox="0 0 100 100" fill="none" xmlns="http://www.w3.org/2000/svg">
<path d="M29.1667 83.3333H45.8333C45.8333 87.9167 42.0833 91.6667 37.5 91.6667C32.9167 91.6667 29.1667 87.9167 29.1667 83.3333ZM20.8333 79.1667H54.1667V70.8333H20.8333V79.1667ZM68.75 39.5833C68.75 55.5 57.6667 64 53.0417 66.6667H21.9583C17.3333 64 6.25 55.5 6.25 39.5833C6.25 22.3333 20.25 8.33333 37.5 8.33333C54.75 8.33333 68.75 22.3333 68.75 39.5833ZM60.4167 39.5833C60.4167 26.9583 50.125 16.6667 37.5 16.6667C24.875 16.6667 14.5833 26.9583 14.5833 39.5833C14.5833 49.875 20.7917 55.7917 24.375 58.3333H50.625C54.2083 55.7917 60.4167 49.875 60.4167 39.5833ZM89.0417 30.7083L83.3333 33.3333L89.0417 35.9583L91.6667 41.6667L94.2917 35.9583L100 33.3333L94.2917 30.7083L91.6667 25L89.0417 30.7083ZM79.1667 25L83.0833 16.4167L91.6667 12.5L83.0833 8.58333L79.1667 0L75.25 8.58333L66.6667 12.5L75.25 16.4167L79.1667 25Z" fill="#42428B"/>
</svg>
